<?xml version="1.0" encoding="UTF-8" standalone="no"?><!DOCTYPE svg PUBLIC "-//W3C//DTD SVG 1.1//EN" "http://www.w3.org/Graphics/SVG/1.1/DTD/svg11.dtd"><svg width="100%" height="100%" viewBox="0 0 256 256" version="1.1" xmlns="http://www.w3.org/2000/svg" xmlns:xlink="http://www.w3.org/1999/xlink" xml:space="preserve" xmlns:serif="http://www.serif.com/" style="fill-rule:evenodd;clip-rule:evenodd;stroke-linejoin:round;stroke-miterlimit:1.41421;"><rect id="Artboard1" x="0" y="0.472" width="256" height="256" style="fill:none;"/><g id="civilization"><path d="M90.192,138.215c16.809,11.714 31.611,23.083 38.541,34.295c6.523,-11.751 21.503,-23.937 38.53,-36.558c-6.348,-33.148 -30.02,-73.061 -38.608,-86.759c-8.685,14.03 -32.908,55.449 -38.463,89.022Z" style="fill:url(#_Linear1);fill-rule:nonzero;"/><path d="M156.939,84.807c6.934,14.493 13.476,30.809 16.868,46.336c1.736,-1.267 3.485,-2.539 5.24,-3.815c6.283,-4.569 12.781,-9.314 18.823,-13.997c-0.357,-23.303 -3.332,-45.458 -4.869,-55.448c-7.184,4.691 -21.551,14.507 -36.062,26.924Z" style="fill:url(#_Linear2);fill-rule:nonzero;"/><path d="M57.119,115.25c6.517,4.791 13.649,9.655 20.497,14.324c1.974,1.347 3.941,2.689 5.893,4.026c2.92,-15.016 8.927,-30.932 15.508,-45.307c-15.468,-12.596 -31.005,-22.486 -38.61,-27.095c-1.217,9.799 -3.484,31.3 -3.288,54.052Z" style="fill:url(#_Linear3);fill-rule:nonzero;"/><path d="M183.455,133.388c-24.645,17.922 -52.577,38.235 -50.599,52.462c0.821,5.913 7.28,11.132 19.199,15.519c17.948,6.601 32.687,5.638 43.814,-2.87c25.074,-19.166 27.882,-71.347 27.566,-98.178c-8.406,10.104 -23.492,21.077 -39.98,33.067Z" style="fill:url(#_Linear4);fill-rule:nonzero;"/><path d="M62.663,201.237c11.351,8.161 26.119,8.654 43.896,1.473c11.833,-4.781 18.158,-10.229 18.799,-16.189c1.538,-14.276 -26.888,-33.656 -51.966,-50.754c-16.801,-11.458 -32.174,-21.939 -40.849,-31.773c0.401,26.813 4.592,78.884 30.12,97.243Z" style="fill:url(#_Linear5);fill-rule:nonzero;"/></g><defs><linearGradient id="_Linear1" x1="0" y1="0" x2="1" y2="0" gradientUnits="userSpaceOnUse" gradientTransform="matrix(8.88178e-16,265.221,-265.221,8.88178e-16,128.727,34.0521)"><stop offset="0" style="stop-color:#73ecfd;stop-opacity:1"/><stop offset="0" style="stop-color:#73ecfd;stop-opacity:1"/><stop offset="1" style="stop-color:#ff328d;stop-opacity:1"/></linearGradient><linearGradient id="_Linear2" x1="0" y1="0" x2="1" y2="0" gradientUnits="userSpaceOnUse" gradientTransform="matrix(-47.7769,115.227,-115.227,-47.7769,199.67,45.3715)"><stop offset="0" style="stop-color:#73ecfd;stop-opacity:1"/><stop offset="1" style="stop-color:#312480;stop-opacity:1"/></linearGradient><linearGradient id="_Linear3" x1="0" y1="0" x2="1" y2="0" gradientUnits="userSpaceOnUse" gradientTransform="matrix(47.7769,106.795,-106.795,47.7769,55.5752,51.4928)"><stop offset="0" style="stop-color:#73ecfd;stop-opacity:1"/><stop offset="1" style="stop-color:#312480;stop-opacity:1"/></linearGradient><linearGradient id="_Linear4" x1="0" y1="0" x2="1" y2="0" gradientUnits="userSpaceOnUse" gradientTransform="matrix(118.037,-124.595,124.595,118.037,139.796,213.947)"><stop offset="0" style="stop-color:#73ecfd;stop-opacity:1"/><stop offset="1" style="stop-color:#312480;stop-opacity:1"/></linearGradient><linearGradient id="_Linear5" x1="0" y1="0" x2="1" y2="0" gradientUnits="userSpaceOnUse" gradientTransform="matrix(-100.238,-121.784,121.784,-100.238,112.317,213.693)"><stop offset="0" style="stop-color:#73ecfd;stop-opacity:1"/><stop offset="1" style="stop-color:#312480;stop-opacity:1"/></linearGradient></defs></svg>