<?xml version="1.0" encoding="UTF-8" standalone="no"?><!DOCTYPE svg PUBLIC "-//W3C//DTD SVG 1.1//EN" "http://www.w3.org/Graphics/SVG/1.1/DTD/svg11.dtd"><svg width="100%" height="100%" viewBox="0 0 256 256" version="1.1" xmlns="http://www.w3.org/2000/svg" xmlns:xlink="http://www.w3.org/1999/xlink" xml:space="preserve" xmlns:serif="http://www.serif.com/" style="fill-rule:evenodd;clip-rule:evenodd;stroke-linejoin:round;stroke-miterlimit:1.41421;"><rect id="Artboard1" x="0" y="0.443" width="256" height="256" style="fill:none;"/><g id="financial"><path d="M195.172,21.596c-5.766,0.692 -9.881,5.927 -9.188,11.693c0.093,0.778 0.275,1.523 0.525,2.234l-58.557,46.027c-1.994,-1.299 -4.436,-1.933 -6.982,-1.629c-1.181,0.142 -2.287,0.483 -3.301,0.971l-18.565,-18.897c0.517,-1.472 0.725,-3.076 0.526,-4.729c-0.691,-5.767 -5.926,-9.881 -11.694,-9.188c-5.765,0.691 -9.879,5.926 -9.187,11.693c0.236,1.967 1.01,3.736 2.146,5.194l-30.108,53.58c-0.803,-0.094 -1.626,-0.105 -2.463,-0.005c-5.767,0.691 -9.88,5.927 -9.19,11.693c0.692,5.767 5.929,9.881 11.695,9.189c5.766,-0.691 9.88,-5.927 9.188,-11.693c-0.298,-2.479 -1.438,-4.649 -3.096,-6.267l29.651,-52.767c1.228,0.316 2.533,0.425 3.87,0.264c1.636,-0.196 3.131,-0.767 4.429,-1.604l17.959,18.283c-0.9,1.785 -1.305,3.844 -1.048,5.979c0.691,5.765 5.926,9.879 11.693,9.188c5.766,-0.692 9.88,-5.928 9.187,-11.694c-0.093,-0.778 -0.274,-1.523 -0.523,-2.233l58.555,-46.027c1.994,1.298 4.436,1.931 6.983,1.627c5.765,-0.692 9.88,-5.927 9.189,-11.693c-0.642,-5.341 -5.181,-9.265 -10.429,-9.265c-0.418,0 -0.839,0.025 -1.265,0.076Z" style="fill:url(#_Linear1);fill-rule:nonzero;"/><rect x="61.456" y="138.092" width="38.444" height="64.243" style="fill:url(#_Linear2);"/><rect x="158.416" y="83.984" width="38.445" height="118.351" style="fill:url(#_Linear3);"/><rect x="108.43" y="112.629" width="38.445" height="89.705" style="fill:url(#_Linear4);"/></g><defs><linearGradient id="_Linear1" x1="0" y1="0" x2="1" y2="0" gradientUnits="userSpaceOnUse" gradientTransform="matrix(167.882,0,0,167.882,39.0588,80.5087)"><stop offset="0" style="stop-color:#312480;stop-opacity:1"/><stop offset="1" style="stop-color:#ff328d;stop-opacity:1"/></linearGradient><linearGradient id="_Linear2" x1="0" y1="0" x2="1" y2="0" gradientUnits="userSpaceOnUse" gradientTransform="matrix(-0.475318,-65.5939,65.5939,-0.475318,80.9113,202.472)"><stop offset="0" style="stop-color:#ff328d;stop-opacity:1"/><stop offset="0.24" style="stop-color:#ff328d;stop-opacity:1"/><stop offset="0.72" style="stop-color:#ffb228;stop-opacity:1"/><stop offset="1" style="stop-color:#ffb228;stop-opacity:1"/></linearGradient><linearGradient id="_Linear3" x1="0" y1="0" x2="1" y2="0" gradientUnits="userSpaceOnUse" gradientTransform="matrix(-1.32753,-183.199,183.199,-1.32753,178.289,232.952)"><stop offset="0" style="stop-color:#312480;stop-opacity:1"/><stop offset="1" style="stop-color:#73ecfd;stop-opacity:1"/></linearGradient><linearGradient id="_Linear4" x1="0" y1="0" x2="1" y2="0" gradientUnits="userSpaceOnUse" gradientTransform="matrix(-0.977536,-134.9,134.9,-0.977536,128.187,231.14)"><stop offset="0" style="stop-color:#1a135e;stop-opacity:1"/><stop offset="0" style="stop-color:#1a135e;stop-opacity:1"/><stop offset="1" style="stop-color:#8d34f0;stop-opacity:1"/></linearGradient></defs></svg>