<?xml version="1.0" encoding="UTF-8" standalone="no"?><!DOCTYPE svg PUBLIC "-//W3C//DTD SVG 1.1//EN" "http://www.w3.org/Graphics/SVG/1.1/DTD/svg11.dtd"><svg width="100%" height="100%" viewBox="0 0 256 256" version="1.1" xmlns="http://www.w3.org/2000/svg" xmlns:xlink="http://www.w3.org/1999/xlink" xml:space="preserve" xmlns:serif="http://www.serif.com/" style="fill-rule:evenodd;clip-rule:evenodd;stroke-linejoin:round;stroke-miterlimit:1.41421;"><rect id="Artboard1" x="0" y="0.277" width="256" height="256" style="fill:none;"/><clipPath id="_clip1"><rect x="0" y="0.277" width="256" height="256"/></clipPath><g clip-path="url(#_clip1)"><g id="human"><path d="M131.358,0.277l-22.729,39.454l16.725,4.718l-4.289,29.59l25.732,-41.598l-18.012,-4.718l2.573,-27.446Z" style="fill:url(#_Linear2);fill-rule:nonzero;"/><path d="M63.079,54.312c0,12.548 0.012,103.357 0.046,104.143c0.604,16.704 7.57,32.307 19.611,43.949c12.074,11.664 27.968,18.088 44.762,18.088l0,-26.257c-20.146,0 -37.112,-15.701 -38.645,-35.751c-0.051,-2.469 -0.086,-59.449 -0.103,-86.933c-0.006,-9.007 -0.006,-14.668 -0.011,-17.239l-25.66,0Z" style="fill:url(#_Linear3);fill-rule:nonzero;"/><path d="M166.259,54.312c-0.006,2.799 -0.006,9.252 -0.011,19.645c-0.012,28.653 -0.035,81.819 -0.063,84.009c-1.293,20.339 -18.271,36.269 -38.687,36.269l0,26.257c16.841,0 32.769,-6.459 44.855,-18.18c12.057,-11.698 18.996,-27.376 19.531,-44.136c0.023,-0.701 0.034,-91.328 0.034,-103.864l-25.659,0Z" style="fill:url(#_Linear4);fill-rule:nonzero;"/><rect x="63.079" y="54.312" width="25.655" height="25.654" style="fill:url(#_Linear5);"/><rect x="166.264" y="54.312" width="25.655" height="25.654" style="fill:url(#_Linear6);"/></g></g><defs><linearGradient id="_Linear2" x1="0" y1="0" x2="1" y2="0" gradientUnits="userSpaceOnUse" gradientTransform="matrix(38.1678,0,0,38.1678,108.629,37.1579)"><stop offset="0" style="stop-color:#ff328d;stop-opacity:1"/><stop offset="0.24" style="stop-color:#ff328d;stop-opacity:1"/><stop offset="0.72" style="stop-color:#ffb228;stop-opacity:1"/><stop offset="1" style="stop-color:#ffb228;stop-opacity:1"/></linearGradient><linearGradient id="_Linear3" x1="0" y1="0" x2="1" y2="0" gradientUnits="userSpaceOnUse" gradientTransform="matrix(64.4198,0,0,64.4198,63.079,137.402)"><stop offset="0" style="stop-color:#ff7d19;stop-opacity:1"/><stop offset="0" style="stop-color:#ff7d19;stop-opacity:1"/><stop offset="1" style="stop-color:#ffc948;stop-opacity:1"/></linearGradient><linearGradient id="_Linear4" x1="0" y1="0" x2="1" y2="0" gradientUnits="userSpaceOnUse" gradientTransform="matrix(0,274.641,-274.641,0,159.709,-50.1675)"><stop offset="0" style="stop-color:#312480;stop-opacity:1"/><stop offset="1" style="stop-color:#ff328d;stop-opacity:1"/></linearGradient><linearGradient id="_Linear5" x1="0" y1="0" x2="1" y2="0" gradientUnits="userSpaceOnUse" gradientTransform="matrix(272.391,0,0,272.391,63.079,67.1388)"><stop offset="0" style="stop-color:#73ecfd;stop-opacity:1"/><stop offset="0.81" style="stop-color:#4d79b5;stop-opacity:1"/><stop offset="1" style="stop-color:#312480;stop-opacity:1"/></linearGradient><linearGradient id="_Linear6" x1="0" y1="0" x2="1" y2="0" gradientUnits="userSpaceOnUse" gradientTransform="matrix(371.672,0,0,371.672,166.265,67.1388)"><stop offset="0" style="stop-color:#73ecfd;stop-opacity:1"/><stop offset="0.81" style="stop-color:#4d79b5;stop-opacity:1"/><stop offset="1" style="stop-color:#312480;stop-opacity:1"/></linearGradient></defs></svg>