<?xml version="1.0" encoding="UTF-8" standalone="no"?><!DOCTYPE svg PUBLIC "-//W3C//DTD SVG 1.1//EN" "http://www.w3.org/Graphics/SVG/1.1/DTD/svg11.dtd"><svg width="100%" height="100%" viewBox="0 0 575 1085" version="1.1" xmlns="http://www.w3.org/2000/svg" xmlns:xlink="http://www.w3.org/1999/xlink" xml:space="preserve" xmlns:serif="http://www.serif.com/" style="fill-rule:evenodd;clip-rule:evenodd;stroke-linejoin:round;stroke-miterlimit:1.41421;"><rect id="Artboard2" x="0" y="0" width="574.245" height="1084" style="fill:none;"/><rect x="135.982" y="386.474" width="303.167" height="46.461" style="fill:url(#_Linear1);"/><rect x="237.982" y="532.474" width="302.958" height="376.142" style="fill:url(#_Linear2);"/><rect x="128.94" y="210.206" width="78" height="551" style="fill:url(#_Linear3);"/><rect x="243.373" y="667.473" width="249.241" height="46.462" style="fill:url(#_Linear4);"/><rect x="197.565" y="395.006" width="46" height="406.935" style="fill:url(#_Linear5);"/><rect x="187.827" y="286.206" width="20" height="359" style="fill:url(#_Linear6);"/><path d="M237.94,284.333l2.242,256.967c-36.548,17.821 -61.425,55.736 -60.509,99.035l0,0.003c1.256,59.36 50.469,106.482 109.829,105.226c59.36,-1.254 106.483,-50.413 105.227,-109.773c-0.897,-42.446 -25.747,-74.768 -62.417,-95.336c0,0 15.373,-64.292 10.975,-66.3l-24.215,-11.066l2.018,-10.277l-26.686,-22.118l3.105,-21.403l2.613,-4.421l-0.559,-8.24l-7.902,-10.302l1.403,-17.809l14.641,-15.985l-5.752,-23.167l-9.757,-44.421l-23.012,-16.402l-31.244,15.789Zm17.168,390.389c-0.368,-17.407 13.956,-31.816 31.995,-32.198c18.039,-0.382 33.016,13.409 33.384,30.815c0.369,17.407 -14.01,31.875 -32.05,32.256c-0.243,0.005 -0.485,0.008 -0.726,0.008c-17.714,0 -32.24,-13.707 -32.603,-30.881Z" style="fill:url(#_Linear7);fill-rule:nonzero;"/><defs><linearGradient id="_Linear1" x1="0" y1="0" x2="1" y2="0" gradientUnits="userSpaceOnUse" gradientTransform="matrix(-303.167,0,-0,-303.167,439.149,409.704)"><stop offset="0" style="stop-color:#73ecfd;stop-opacity:1"/><stop offset="1" style="stop-color:#312480;stop-opacity:1"/></linearGradient><linearGradient id="_Linear2" x1="0" y1="0" x2="1" y2="0" gradientUnits="userSpaceOnUse" gradientTransform="matrix(492,0,0,492,165.94,720.545)"><stop offset="0" style="stop-color:#312480;stop-opacity:1"/><stop offset="1" style="stop-color:#73ecfd;stop-opacity:1"/></linearGradient><linearGradient id="_Linear3" x1="0" y1="0" x2="1" y2="0" gradientUnits="userSpaceOnUse" gradientTransform="matrix(0,567.511,-567.511,0,167.94,225.085)"><stop offset="0" style="stop-color:#73ecfd;stop-opacity:1"/><stop offset="0.81" style="stop-color:#4d79b5;stop-opacity:1"/><stop offset="1" style="stop-color:#312480;stop-opacity:1"/></linearGradient><linearGradient id="_Linear4" x1="0" y1="0" x2="1" y2="0" gradientUnits="userSpaceOnUse" gradientTransform="matrix(249.241,0,0,249.241,243.373,690.704)"><stop offset="0" style="stop-color:#312480;stop-opacity:1"/><stop offset="1" style="stop-color:#73ecfd;stop-opacity:1"/></linearGradient><linearGradient id="_Linear5" x1="0" y1="0" x2="1" y2="0" gradientUnits="userSpaceOnUse" gradientTransform="matrix(-3.0003,-414.041,414.041,-3.0003,222.041,802.097)"><stop offset="0" style="stop-color:#180035;stop-opacity:1"/><stop offset="1" style="stop-color:#1a135e;stop-opacity:1"/></linearGradient><linearGradient id="_Linear6" x1="0" y1="0" x2="1" y2="0" gradientUnits="userSpaceOnUse" gradientTransform="matrix(0,-341.448,341.448,0,197.827,642.935)"><stop offset="0" style="stop-color:#180035;stop-opacity:1"/><stop offset="1" style="stop-color:#1a135e;stop-opacity:1"/></linearGradient><linearGradient id="_Linear7" x1="0" y1="0" x2="1" y2="0" gradientUnits="userSpaceOnUse" gradientTransform="matrix(0,-502.172,502.172,-0,287.202,764.94)"><stop offset="0" style="stop-color:#1a135e;stop-opacity:1"/><stop offset="0" style="stop-color:#1a135e;stop-opacity:1"/><stop offset="1" style="stop-color:#8d34f0;stop-opacity:1"/></linearGradient></defs></svg>