<svg width="634" height="390" viewBox="0 0 634 390" fill="none" xmlns="http://www.w3.org/2000/svg">
<rect y="350" width="350" height="430" transform="rotate(-90 0 350)" fill="url(#paint0_linear)"/>
<rect x="440" y="182" width="182" height="52" transform="rotate(-90 440 182)" fill="url(#paint1_linear)"/>
<rect y="118" width="30" height="400" transform="rotate(-90 0 118)" fill="url(#paint2_linear)"/>
<rect x="107" y="207" width="64" height="500" transform="rotate(-90 107 207)" fill="url(#paint3_linear)"/>
<circle cx="259" cy="215" r="148" transform="rotate(-90 259 215)" stroke="url(#paint4_linear)" stroke-width="54"/>
<rect x="29" y="168" width="168" height="55" transform="rotate(-90 29 168)" fill="#21177C"/>
<path fill-rule="evenodd" clip-rule="evenodd" d="M447 136.5V7.5C447 4.96436 447.142 2.46185 447.418 0H393.23C393.077 2.48045 393 4.9812 393 7.5V136.5C393 203.05 446.95 257 513.5 257C580.05 257 634 203.05 634 136.5V7.5C634 4.9812 633.923 2.48045 633.77 0H579.582C579.858 2.46185 580 4.96436 580 7.5V136.5C580 173.227 550.227 203 513.5 203C476.773 203 447 173.227 447 136.5Z" fill="url(#paint5_linear)"/>
<rect y="350" width="350" height="46" transform="rotate(-90 0 350)" fill="url(#paint6_linear)"/>
<defs>
<linearGradient id="paint0_linear" x1="0" y1="565" x2="350" y2="565" gradientUnits="userSpaceOnUse">
<stop stop-color="#70F2FD"/>
<stop offset="1" stop-color="#FE2795"/>
</linearGradient>
<linearGradient id="paint1_linear" x1="622" y1="208" x2="475.5" y2="208" gradientUnits="userSpaceOnUse">
<stop stop-color="#FFA21D"/>
<stop offset="1" stop-color="#FFCC31"/>
</linearGradient>
<linearGradient id="paint2_linear" x1="15" y1="118" x2="15" y2="518" gradientUnits="userSpaceOnUse">
<stop stop-color="#F72391"/>
<stop offset="0.9999" stop-color="#331982"/>
<stop offset="1" stop-color="#C4C4C4" stop-opacity="0"/>
</linearGradient>
<linearGradient id="paint3_linear" x1="139" y1="207" x2="139" y2="707" gradientUnits="userSpaceOnUse">
<stop stop-color="#FFC01B"/>
<stop offset="1" stop-color="#FF328D"/>
</linearGradient>
<linearGradient id="paint4_linear" x1="84" y1="215" x2="434" y2="215" gradientUnits="userSpaceOnUse">
<stop stop-color="#120C55"/>
<stop offset="1" stop-color="#9025F5"/>
</linearGradient>
<linearGradient id="paint5_linear" x1="514" y1="257" x2="514" y2="-74.7768" gradientUnits="userSpaceOnUse">
<stop stop-color="#130C56"/>
<stop offset="1" stop-color="#8E24F3"/>
</linearGradient>
<linearGradient id="paint6_linear" x1="-1.30385e-06" y1="373" x2="350" y2="373" gradientUnits="userSpaceOnUse">
<stop stop-color="#6EF3FE"/>
<stop offset="1" stop-color="#262088"/>
</linearGradient>
</defs>
</svg>
