<?xml version="1.0" encoding="UTF-8" standalone="no"?><!DOCTYPE svg PUBLIC "-//W3C//DTD SVG 1.1//EN" "http://www.w3.org/Graphics/SVG/1.1/DTD/svg11.dtd"><svg width="100%" height="100%" viewBox="0 0 455 90" version="1.1" xmlns="http://www.w3.org/2000/svg" xmlns:xlink="http://www.w3.org/1999/xlink" xml:space="preserve" xmlns:serif="http://www.serif.com/" style="fill-rule:evenodd;clip-rule:evenodd;stroke-linejoin:round;stroke-miterlimit:1.41421;"><g><path d="M61.929,8.203l0.095,19.119l-1.896,-1.081l-0.066,-16.953l-15.099,-8.64l-14.46,8.446l-1.896,-1.071l12.607,-7.332c-2.685,0.241 -5.343,0.729 -7.939,1.455l-7.389,4.308l-1.397,-0.801c-0.702,0.375 -1.394,0.758 -2.072,1.166l20.759,12.014l-1.863,1.081l-18.957,-10.972l-9.19,5.294c-1.744,1.831 -3.329,3.806 -4.739,5.905l13.948,-8.057l16.194,9.417l-1.867,1.081l-14.351,-8.318l-15.061,8.659l0,16.753l-1.887,1.096l0,-15.455c-1.112,2.279 -2.025,4.649 -2.73,7.085l0,9.953l-1.748,0.99c-0.038,0.502 -0.038,1 -0.038,1.502c0,0.365 0,0.72 0.028,1.081l20.759,-12.152l0,2.166l-19.029,11.151l0.062,10.356c0.721,2.446 1.654,4.824 2.786,7.109l-0.094,-15.891l16.275,-9.55l0,2.167l-14.403,8.43l0.104,17.38l14.559,8.288l0,2.157l-13.217,-7.531c1.463,2.124 3.109,4.118 4.919,5.958l8.331,4.738l0,1.897c0.697,0.426 1.422,0.848 2.123,1.236l-0.095,-24.047l1.897,1.081l0.08,22.241l8.28,4.74c2.521,0.637 5.093,1.051 7.687,1.236l-13.228,-7.583l-0.075,-19.028l1.895,1.081l0.067,16.862l15.09,8.626l14.44,-8.441l1.896,1.071l-12.56,7.317c2.728,-0.258 5.425,-0.771 8.057,-1.53l7.238,-4.218l1.322,0.758c0.546,-0.294 1.088,-0.599 1.625,-0.915l-20.791,-11.999l1.867,-1.081l19.403,11.208l8.056,-4.658c1.948,-1.915 3.715,-4.004 5.28,-6.242l-13.336,7.725l-16.663,-9.621l1.867,-1.08l14.782,8.531l15.051,-8.692l0,-16.74l1.868,-1.08l0,14.952c1.116,-2.286 2.033,-4.665 2.739,-7.109l0,-9.421l1.707,-0.986c0.028,-0.649 0.047,-1.293 0.047,-1.948c0.009,-0.313 -0.01,-0.626 -0.015,-0.934l-20.767,11.901l0,-2.152l18.957,-10.867l0.033,-10.426c-0.704,-2.409 -1.613,-4.754 -2.716,-7.01l-0.051,15.858l-16.223,9.298l0,-2.151l14.36,-8.228l0.052,-17.379l-14.479,-8.44l0,-2.157l13.067,7.583c-1.499,-2.181 -3.19,-4.224 -5.052,-6.104l-8.005,-4.654l0,-1.735c-0.73,-0.473 -1.469,-0.895 -2.227,-1.313l0.094,24.048l-1.895,-1.081l-0.09,-22.275l-8.104,-4.677c-2.555,-0.666 -5.164,-1.102 -7.796,-1.304l13.203,7.555Zm-28.341,2.659l11.375,-6.635l12.018,6.848l0.053,13.369l-1.897,-1.08l-0.042,-11.204l-10.095,-5.777l-9.516,5.55l-1.896,-1.071Zm4.739,2.72l6.683,-3.9l7.251,4.151l0.033,7.882l-1.896,-1.081l0,-5.715l-5.374,-3.076l-4.801,2.811l-1.896,-1.072Zm-27.962,11.142l11.982,-6.891l11.265,6.512l-1.863,1.09l-9.408,-5.446l-10.08,5.82l0,11.034l-1.896,1.071l0,-13.19Zm58.436,17.915l9.412,-5.394l0.034,-11.658l-9.536,-5.545l0.005,-2.162l11.403,6.636l-0.039,13.81l-11.279,6.464l0,-2.151Zm-43.009,13.459l0,-22.474l19.431,-11.231l19.431,11.231l0,22.474l-19.417,11.204l-19.445,-11.204Zm-10.687,-28.634l7.242,-4.167l6.549,3.792l-1.867,1.08l-4.692,-2.72l-5.37,3.095l0,5.564l-1.862,1.081l0,-7.725Zm53.696,9.72l4.692,-2.688l0,-6.194l-4.815,-2.801l0.038,-2.161l6.677,3.882l-0.028,8.355l-6.564,3.758l0,-2.151Zm-58.346,28.108l-0.09,-13.815l11.304,-6.635l0,2.166l-9.408,5.536l0.072,11.658l9.587,5.455l0,2.157l-11.465,-6.522Zm4.731,-2.758l-0.081,-8.332l6.554,-3.843l0,2.166l-4.659,2.725l0.038,6.194l4.863,2.758l0,2.157l-6.715,-3.825Zm63.079,1.82l0,-11.052l1.867,-1.081l0,13.188l-11.947,6.912l-11.706,-6.744l1.867,-1.081l9.825,5.687l10.094,-5.829Zm-4.715,-2.754l0,-5.563l1.867,-1.081l0,7.725l-7.232,4.175l-6.967,-4.019l1.868,-1.08l5.099,2.943l5.365,-3.1Zm-39.876,17.024l-0.053,-13.27l1.896,1.08l0.042,11.11l10.119,5.791l9.531,-5.554l1.829,1.066l-11.375,6.635l-11.989,-6.858Zm4.7,-2.758l-0.047,-7.792l1.896,1.081l0,5.621l5.379,3.075l4.801,-2.795l1.895,1.071l-6.672,3.886l-7.252,-4.147Z" style="fill:url(#_Linear1);fill-rule:nonzero;"/><g><g transform="matrix(5.86903,0,0,5.86903,-1443.8,-1658.07)"><text x="264.442px" y="294.441px" style="font-family:'JosefinSans-Bold', 'Josefin Sans';font-weight:700;font-size:12px;fill:#260c29;">C<tspan x="272.446px 279.118px " y="294.441px 294.441px ">TR</tspan></text><text x="288.978px" y="294.441px" style="font-family:'JosefinSans-Light', 'Josefin Sans';font-weight:300;font-size:12px;fill:#260c29;">C<tspan x="296.91px 303.258px 309.642px 311.982px 315.522px 321.87px " y="294.441px 294.441px 294.441px 294.441px 294.441px 294.441px ">apital</tspan></text></g></g></g><defs><linearGradient id="_Linear1" x1="0" y1="0" x2="1" y2="0" gradientUnits="userSpaceOnUse" gradientTransform="matrix(0,-82.274,-82.274,-0,45.2362,87.0078)"><stop offset="0" style="stop-color:#312480;stop-opacity:1"/><stop offset="1" style="stop-color:#ff328d;stop-opacity:1"/></linearGradient></defs></svg>