<?xml version="1.0" encoding="UTF-8" standalone="no"?><!DOCTYPE svg PUBLIC "-//W3C//DTD SVG 1.1//EN" "http://www.w3.org/Graphics/SVG/1.1/DTD/svg11.dtd"><svg width="100%" height="100%" viewBox="0 0 455 89" version="1.1" xmlns="http://www.w3.org/2000/svg" xmlns:xlink="http://www.w3.org/1999/xlink" xml:space="preserve" xmlns:serif="http://www.serif.com/" style="fill-rule:evenodd;clip-rule:evenodd;stroke-linejoin:round;stroke-miterlimit:1.41421;"><g><path d="M61.929,8.071l0.095,19.119l-1.896,-1.081l-0.066,-16.953l-15.099,-8.639l-14.46,8.445l-1.896,-1.071l12.607,-7.332c-2.685,0.242 -5.343,0.729 -7.939,1.455l-7.389,4.308l-1.397,-0.801c-0.702,0.375 -1.394,0.759 -2.072,1.167l20.759,12.013l-1.863,1.081l-18.957,-10.972l-9.19,5.294c-1.744,1.831 -3.329,3.806 -4.739,5.905l13.948,-8.056l16.194,9.417l-1.867,1.08l-14.351,-8.317l-15.061,8.658l0,16.754l-1.887,1.095l0,-15.455c-1.112,2.279 -2.025,4.649 -2.73,7.085l0,9.953l-1.748,0.99c-0.038,0.502 -0.038,1 -0.038,1.502c0,0.366 0,0.721 0.028,1.081l20.759,-12.152l0,2.167l-19.029,11.151l0.062,10.355c0.721,2.446 1.654,4.825 2.786,7.109l-0.094,-15.891l16.275,-9.55l0,2.167l-14.403,8.43l0.104,17.38l14.559,8.288l0,2.157l-13.217,-7.531c1.463,2.125 3.109,4.118 4.919,5.958l8.331,4.739l0,1.896c0.697,0.426 1.422,0.848 2.123,1.236l-0.095,-24.047l1.897,1.081l0.08,22.242l8.28,4.739c2.521,0.637 5.093,1.051 7.687,1.236l-13.228,-7.582l-0.075,-19.029l1.895,1.081l0.067,16.862l15.09,8.626l14.44,-8.44l1.896,1.071l-12.56,7.317c2.728,-0.259 5.425,-0.771 8.057,-1.531l7.238,-4.218l1.322,0.758c0.546,-0.294 1.088,-0.598 1.625,-0.914l-20.791,-12l1.867,-1.081l19.403,11.208l8.056,-4.658c1.948,-1.915 3.715,-4.004 5.28,-6.242l-13.336,7.726l-16.663,-9.622l1.867,-1.08l14.782,8.531l15.051,-8.692l0,-16.739l1.868,-1.081l0,14.952c1.116,-2.286 2.033,-4.664 2.739,-7.108l0,-9.422l1.707,-0.986c0.028,-0.649 0.047,-1.293 0.047,-1.948c0.009,-0.313 -0.01,-0.625 -0.015,-0.933l-20.767,11.9l0,-2.152l18.957,-10.867l0.033,-10.426c-0.704,-2.409 -1.613,-4.754 -2.716,-7.01l-0.051,15.858l-16.223,9.298l0,-2.151l14.36,-8.228l0.052,-17.379l-14.479,-8.44l0,-2.157l13.067,7.584c-1.499,-2.182 -3.19,-4.224 -5.052,-6.104l-8.005,-4.654l0,-1.736c-0.73,-0.473 -1.469,-0.895 -2.227,-1.312l0.094,24.047l-1.895,-1.081l-0.09,-22.274l-8.104,-4.678c-2.555,-0.665 -5.164,-1.102 -7.796,-1.303l13.203,7.554Zm-28.341,2.659l11.375,-6.635l12.018,6.848l0.053,13.37l-1.897,-1.08l-0.042,-11.205l-10.095,-5.777l-9.516,5.55l-1.896,-1.071Zm4.739,2.72l6.683,-3.9l7.251,4.151l0.033,7.882l-1.896,-1.081l0,-5.715l-5.374,-3.076l-4.801,2.811l-1.896,-1.072Zm-27.962,11.143l11.982,-6.892l11.265,6.512l-1.863,1.09l-9.408,-5.445l-10.08,5.82l0,11.033l-1.896,1.071l0,-13.189Zm58.436,17.914l9.412,-5.394l0.034,-11.658l-9.536,-5.545l0.005,-2.161l11.403,6.635l-0.039,13.81l-11.279,6.464l0,-2.151Zm-43.009,13.459l0,-22.473l19.431,-11.232l19.431,11.232l0,22.473l-19.417,11.204l-19.445,-11.204Zm-10.687,-28.634l7.242,-4.166l6.549,3.791l-1.867,1.081l-4.692,-2.721l-5.37,3.095l0,5.564l-1.862,1.081l0,-7.725Zm53.696,9.72l4.692,-2.687l0,-6.195l-4.815,-2.801l0.038,-2.161l6.677,3.882l-0.028,8.355l-6.564,3.758l0,-2.151Zm-58.346,28.108l-0.09,-13.815l11.304,-6.635l0,2.166l-9.408,5.536l0.072,11.658l9.587,5.455l0,2.157l-11.465,-6.522Zm4.731,-2.758l-0.081,-8.331l6.554,-3.844l0,2.166l-4.659,2.725l0.038,6.194l4.863,2.758l0,2.157l-6.715,-3.825Zm63.079,1.82l0,-11.052l1.867,-1.08l0,13.187l-11.947,6.912l-11.706,-6.744l1.867,-1.081l9.825,5.687l10.094,-5.829Zm-4.715,-2.753l0,-5.564l1.867,-1.081l0,7.725l-7.232,4.175l-6.967,-4.018l1.868,-1.081l5.099,2.943l5.365,-3.099Zm-39.876,17.023l-0.053,-13.27l1.896,1.081l0.042,11.109l10.119,5.791l9.531,-5.554l1.829,1.066l-11.375,6.635l-11.989,-6.858Zm4.7,-2.758l-0.047,-7.792l1.896,1.081l0,5.621l5.379,3.076l4.801,-2.796l1.895,1.071l-6.672,3.886l-7.252,-4.147Z" style="fill:url(#_Linear1);fill-rule:nonzero;"/><g><g transform="matrix(5.86903,0,0,5.86903,-1443.8,-1658.2)"><path d="M272.206,293.709c-0.224,0.184 -0.58,0.368 -1.068,0.552c-0.488,0.184 -1.02,0.276 -1.596,0.276c-0.92,0 -1.72,-0.2 -2.4,-0.6c-0.68,-0.4 -1.2,-0.938 -1.56,-1.614c-0.36,-0.676 -0.54,-1.418 -0.54,-2.226c0,-0.888 0.18,-1.68 0.54,-2.376c0.36,-0.696 0.864,-1.238 1.512,-1.626c0.648,-0.388 1.396,-0.582 2.244,-0.582c0.536,0 1.032,0.072 1.488,0.216c0.456,0.144 0.856,0.324 1.2,0.54l-0.684,1.644c-0.632,-0.48 -1.28,-0.72 -1.944,-0.72c-0.448,0 -0.868,0.124 -1.26,0.372c-0.392,0.248 -0.704,0.586 -0.936,1.014c-0.232,0.428 -0.348,0.902 -0.348,1.422c0,0.568 0.108,1.066 0.324,1.494c0.216,0.428 0.524,0.762 0.924,1.002c0.4,0.24 0.868,0.36 1.404,0.36c0.432,0 0.82,-0.07 1.164,-0.21c0.344,-0.14 0.616,-0.306 0.816,-0.498l0.72,1.56Z" style="fill:#260c29;fill-rule:nonzero;"/><path d="M278.938,285.609l0,1.68l-2.148,0l0,7.152l-1.74,0l0,-7.152l-2.064,0l0,-1.68l5.952,0Z" style="fill:#260c29;fill-rule:nonzero;"/><path d="M285.022,294.441l-1.86,-2.808l-1.164,0l0,2.808l-1.74,0l0,-8.832l2.676,0c1.096,0 1.946,0.266 2.55,0.798c0.604,0.532 0.906,1.258 0.906,2.178c0,0.544 -0.114,1.054 -0.342,1.53c-0.228,0.476 -0.578,0.85 -1.05,1.122l2.052,3.204l-2.028,0Zm-3.024,-4.488l1.236,0c0.472,0 0.816,-0.138 1.032,-0.414c0.216,-0.276 0.324,-0.574 0.324,-0.894c0,-0.32 -0.092,-0.626 -0.276,-0.918c-0.184,-0.292 -0.54,-0.438 -1.068,-0.438l-1.248,0l0,2.664Z" style="fill:#260c29;fill-rule:nonzero;"/><path d="M296.454,293.877c-0.312,0.192 -0.664,0.35 -1.056,0.474c-0.392,0.124 -0.812,0.186 -1.26,0.186c-0.856,0 -1.612,-0.192 -2.268,-0.576c-0.656,-0.384 -1.166,-0.904 -1.53,-1.56c-0.364,-0.656 -0.546,-1.376 -0.546,-2.16c0,-0.824 0.188,-1.572 0.564,-2.244c0.376,-0.672 0.892,-1.202 1.548,-1.59c0.656,-0.388 1.384,-0.582 2.184,-0.582c0.84,0 1.616,0.216 2.328,0.648l-0.252,0.54c-0.672,-0.416 -1.36,-0.624 -2.064,-0.624c-0.664,0 -1.28,0.17 -1.848,0.51c-0.568,0.34 -1.018,0.804 -1.35,1.392c-0.332,0.588 -0.498,1.23 -0.498,1.926c0,0.688 0.152,1.318 0.456,1.89c0.304,0.572 0.736,1.026 1.296,1.362c0.56,0.336 1.208,0.504 1.944,0.504c0.736,0 1.428,-0.204 2.076,-0.612l0.276,0.516Z" style="fill:#260c29;fill-rule:nonzero;"/><path d="M302.55,289.749l0,4.692l-0.564,0l0,-0.996c-0.184,0.304 -0.464,0.562 -0.84,0.774c-0.376,0.212 -0.784,0.318 -1.224,0.318c-0.448,0 -0.854,-0.102 -1.218,-0.306c-0.364,-0.204 -0.652,-0.492 -0.864,-0.864c-0.212,-0.372 -0.318,-0.798 -0.318,-1.278c0,-0.512 0.11,-0.954 0.33,-1.326c0.22,-0.372 0.524,-0.658 0.912,-0.858c0.388,-0.2 0.826,-0.3 1.314,-0.3c0.384,0 0.752,0.108 1.104,0.324c0.352,0.216 0.62,0.496 0.804,0.84l0.06,-1.02l0.504,0Zm-2.508,4.308c0.528,0 0.976,-0.164 1.344,-0.492c0.368,-0.328 0.568,-0.748 0.6,-1.26l0,-0.672c-0.096,-0.44 -0.328,-0.808 -0.696,-1.104c-0.368,-0.296 -0.788,-0.444 -1.26,-0.444c-0.36,0 -0.688,0.082 -0.984,0.246c-0.296,0.164 -0.53,0.396 -0.702,0.696c-0.172,0.3 -0.258,0.646 -0.258,1.038c0,0.36 0.088,0.692 0.264,0.996c0.176,0.304 0.414,0.546 0.714,0.726c0.3,0.18 0.626,0.27 0.978,0.27Z" style="fill:#260c29;fill-rule:nonzero;"/><path d="M307.002,289.605c0.44,0 0.842,0.108 1.206,0.324c0.364,0.216 0.652,0.514 0.864,0.894c0.212,0.38 0.318,0.802 0.318,1.266c0,0.464 -0.108,0.884 -0.324,1.26c-0.216,0.376 -0.514,0.668 -0.894,0.876c-0.38,0.208 -0.798,0.312 -1.254,0.312c-0.416,0 -0.806,-0.1 -1.17,-0.3c-0.364,-0.2 -0.65,-0.464 -0.858,-0.792l0,3.252l-0.564,0l0,-6.984l0.504,0l0.036,1.044c0.224,-0.352 0.526,-0.632 0.906,-0.84c0.38,-0.208 0.79,-0.312 1.23,-0.312Zm-0.18,4.464c0.36,0 0.692,-0.088 0.996,-0.264c0.304,-0.176 0.546,-0.416 0.726,-0.72c0.18,-0.304 0.27,-0.636 0.27,-0.996c0,-0.368 -0.086,-0.704 -0.258,-1.008c-0.172,-0.304 -0.408,-0.544 -0.708,-0.72c-0.3,-0.176 -0.63,-0.264 -0.99,-0.264c-0.344,0 -0.662,0.08 -0.954,0.24c-0.292,0.16 -0.528,0.378 -0.708,0.654c-0.18,0.276 -0.282,0.582 -0.306,0.918l0,0.384c0.024,0.328 0.126,0.628 0.306,0.9c0.18,0.272 0.412,0.486 0.696,0.642c0.284,0.156 0.594,0.234 0.93,0.234Z" style="fill:#260c29;fill-rule:nonzero;"/><path d="M311.274,289.749l0,4.692l-0.564,0l0,-4.692l0.564,0Zm-0.684,-1.728c0,-0.112 0.042,-0.206 0.126,-0.282c0.084,-0.076 0.182,-0.114 0.294,-0.114c0.112,0 0.208,0.038 0.288,0.114c0.08,0.076 0.12,0.17 0.12,0.282c0,0.12 -0.04,0.218 -0.12,0.294c-0.08,0.076 -0.176,0.114 -0.288,0.114c-0.112,0 -0.21,-0.04 -0.294,-0.12c-0.084,-0.08 -0.126,-0.176 -0.126,-0.288Z" style="fill:#260c29;fill-rule:nonzero;"/><path d="M314.094,287.685l0,2.124l1.452,0l0,0.456l-1.452,0l0,4.176l-0.576,0l0,-4.176l-0.996,0l0,-0.456l0.996,0l0,-2.124l0.576,0Z" style="fill:#260c29;fill-rule:nonzero;"/><path d="M321.162,289.749l0,4.692l-0.564,0l0,-0.996c-0.184,0.304 -0.464,0.562 -0.84,0.774c-0.376,0.212 -0.784,0.318 -1.224,0.318c-0.448,0 -0.854,-0.102 -1.218,-0.306c-0.364,-0.204 -0.652,-0.492 -0.864,-0.864c-0.212,-0.372 -0.318,-0.798 -0.318,-1.278c0,-0.512 0.11,-0.954 0.33,-1.326c0.22,-0.372 0.524,-0.658 0.912,-0.858c0.388,-0.2 0.826,-0.3 1.314,-0.3c0.384,0 0.752,0.108 1.104,0.324c0.352,0.216 0.62,0.496 0.804,0.84l0.06,-1.02l0.504,0Zm-2.508,4.308c0.528,0 0.976,-0.164 1.344,-0.492c0.368,-0.328 0.568,-0.748 0.6,-1.26l0,-0.672c-0.096,-0.44 -0.328,-0.808 -0.696,-1.104c-0.368,-0.296 -0.788,-0.444 -1.26,-0.444c-0.36,0 -0.688,0.082 -0.984,0.246c-0.296,0.164 -0.53,0.396 -0.702,0.696c-0.172,0.3 -0.258,0.646 -0.258,1.038c0,0.36 0.088,0.692 0.264,0.996c0.176,0.304 0.414,0.546 0.714,0.726c0.3,0.18 0.626,0.27 0.978,0.27Z" style="fill:#260c29;fill-rule:nonzero;"/><rect x="322.938" y="285.321" width="0.564" height="9.12" style="fill:#260c29;fill-rule:nonzero;"/></g></g></g><defs><linearGradient id="_Linear1" x1="0" y1="0" x2="1" y2="0" gradientUnits="userSpaceOnUse" gradientTransform="matrix(0,-82.274,-82.274,-0,45.2362,86.876)"><stop offset="0" style="stop-color:#312480;stop-opacity:1"/><stop offset="1" style="stop-color:#ff328d;stop-opacity:1"/></linearGradient></defs></svg>