<?xml version="1.0" encoding="UTF-8" standalone="no"?><!DOCTYPE svg PUBLIC "-//W3C//DTD SVG 1.1//EN" "http://www.w3.org/Graphics/SVG/1.1/DTD/svg11.dtd"><svg width="100%" height="100%" viewBox="0 0 582 128" version="1.1" xmlns="http://www.w3.org/2000/svg" xmlns:xlink="http://www.w3.org/1999/xlink" xml:space="preserve" xmlns:serif="http://www.serif.com/" style="fill-rule:evenodd;clip-rule:evenodd;stroke-linejoin:round;stroke-miterlimit:1.41421;"><g><path d="M88.515,11.448l0.136,27.461l-2.723,-1.553l-0.095,-24.349l-21.687,-12.409l-20.769,12.13l-2.723,-1.538l18.107,-10.531c-3.857,0.346 -7.673,1.046 -11.402,2.09l-10.612,6.187l-2.008,-1.15c-1.008,0.538 -2.002,1.089 -2.975,1.675l29.815,17.255l-2.675,1.552l-27.228,-15.758l-13.2,7.604c-2.505,2.629 -4.782,5.466 -6.807,8.481l20.033,-11.572l23.261,13.526l-2.682,1.552l-20.613,-11.947l-21.632,12.437l0,24.063l-2.71,1.573l0,-22.198c-1.597,3.273 -2.908,6.678 -3.921,10.176l0,14.296l-2.511,1.422c-0.055,0.721 -0.055,1.436 -0.055,2.157c0,0.525 0,1.035 0.041,1.552l29.816,-17.453l0,3.112l-27.331,16.016l0.088,14.874c1.037,3.513 2.376,6.929 4.003,10.21l-0.136,-22.824l23.376,-13.716l0,3.111l-20.688,12.109l0.15,24.963l20.912,11.904l0,3.098l-18.985,-10.817c2.102,3.052 4.466,5.915 7.066,8.557l11.966,6.807l0,2.723c1.001,0.612 2.043,1.219 3.05,1.776l-0.137,-34.539l2.724,1.552l0.115,31.946l11.893,6.808c3.62,0.915 7.315,1.509 11.041,1.775l-18.999,-10.891l-0.109,-27.33l2.723,1.552l0.095,24.219l21.674,12.389l20.741,-12.122l2.723,1.538l-18.039,10.509c3.917,-0.371 7.791,-1.107 11.572,-2.198l10.395,-6.059l1.899,1.089c0.785,-0.422 1.563,-0.859 2.335,-1.313l-29.864,-17.235l2.682,-1.553l27.869,16.099l11.572,-6.691c2.797,-2.75 5.336,-5.751 7.583,-8.965l-19.155,11.096l-23.933,-13.819l2.681,-1.551l21.232,12.252l21.618,-12.485l0,-24.042l2.683,-1.552l0,21.476c1.603,-3.284 2.92,-6.7 3.935,-10.21l0,-13.533l2.45,-1.416c0.041,-0.932 0.068,-1.857 0.068,-2.798c0.014,-0.449 -0.013,-0.898 -0.021,-1.341l-29.828,17.093l0,-3.09l27.228,-15.609l0.048,-14.975c-1.012,-3.461 -2.317,-6.829 -3.901,-10.068l-0.074,22.776l-23.301,13.356l0,-3.09l20.625,-11.818l0.075,-24.961l-20.796,-12.123l0,-3.098l18.767,10.892c-2.152,-3.133 -4.581,-6.067 -7.255,-8.767l-11.498,-6.685l0,-2.492c-1.048,-0.68 -2.11,-1.286 -3.199,-1.886l0.136,34.54l-2.722,-1.553l-0.13,-31.993l-11.64,-6.718c-3.67,-0.956 -7.417,-1.583 -11.198,-1.872l18.965,10.85Zm-40.707,3.82l16.338,-9.531l17.262,9.836l0.075,19.203l-2.723,-1.551l-0.062,-16.093l-14.499,-8.298l-13.668,7.971l-2.723,-1.537Zm6.807,3.906l9.599,-5.601l10.415,5.962l0.047,11.32l-2.723,-1.552l0,-8.209l-7.72,-4.418l-6.895,4.037l-2.723,-1.539Zm-40.162,16.004l17.209,-9.898l16.181,9.353l-2.675,1.566l-13.513,-7.822l-14.479,8.359l0,15.848l-2.723,1.538l0,-18.944Zm83.932,25.73l13.518,-7.746l0.049,-16.745l-13.696,-7.965l0.007,-3.104l16.378,9.531l-0.056,19.835l-16.2,9.285l0,-3.091Zm-61.775,19.332l0,-32.279l27.91,-16.132l27.909,16.132l0,32.279l-27.889,16.093l-27.93,-16.093Zm-15.349,-41.127l10.401,-5.984l9.407,5.445l-2.682,1.552l-6.739,-3.907l-7.712,4.445l0,7.992l-2.675,1.552l0,-11.095Zm77.124,13.961l6.739,-3.86l0,-8.897l-6.916,-4.023l0.055,-3.104l9.59,5.575l-0.04,12.001l-9.428,5.398l0,-3.09Zm-83.802,40.372l-0.13,-19.842l16.236,-9.53l0,3.11l-13.513,7.951l0.103,16.746l13.771,7.834l0,3.098l-16.467,-9.367Zm6.794,-3.962l-0.116,-11.966l9.414,-5.521l0,3.111l-6.692,3.914l0.055,8.897l6.984,3.962l0,3.097l-9.645,-5.494Zm90.601,2.614l0,-15.874l2.682,-1.552l0,18.942l-17.16,9.927l-16.813,-9.686l2.682,-1.552l14.111,8.168l14.498,-8.373Zm-6.772,-3.955l0,-7.99l2.682,-1.553l0,11.095l-10.388,5.998l-10.006,-5.773l2.682,-1.552l7.324,4.227l7.706,-4.452Zm-57.275,24.451l-0.075,-19.059l2.722,1.552l0.062,15.956l14.534,8.318l13.689,-7.978l2.627,1.532l-16.338,9.529l-17.221,-9.85Zm6.752,-3.961l-0.068,-11.191l2.723,1.552l0,8.073l7.727,4.418l6.894,-4.016l2.723,1.539l-9.583,5.582l-10.416,-5.957Z" style="fill:url(#_Linear1);fill-rule:nonzero;"/><g><path d="M192.91,58.618c-1.315,1.08 -3.404,2.159 -6.268,3.239c-2.864,1.08 -5.987,1.62 -9.367,1.62c-5.4,0 -10.095,-1.174 -14.086,-3.521c-3.991,-2.348 -7.043,-5.505 -9.156,-9.473c-2.113,-3.967 -3.169,-8.322 -3.169,-13.064c0,-5.212 1.056,-9.86 3.169,-13.945c2.113,-4.085 5.071,-7.266 8.874,-9.543c3.803,-2.277 8.193,-3.416 13.17,-3.416c3.146,0 6.057,0.423 8.733,1.268c2.677,0.845 5.024,1.901 7.043,3.169l-4.014,9.649c-3.709,-2.817 -7.512,-4.226 -11.409,-4.226c-2.63,0 -5.095,0.728 -7.395,2.183c-2.301,1.456 -4.132,3.44 -5.494,5.952c-1.361,2.511 -2.042,5.293 -2.042,8.345c0,3.334 0.634,6.257 1.901,8.769c1.268,2.512 3.076,4.472 5.423,5.88c2.348,1.409 5.095,2.113 8.24,2.113c2.536,0 4.813,-0.411 6.832,-1.232c2.019,-0.822 3.615,-1.796 4.789,-2.923l4.226,9.156Z" style="fill:#260c29;fill-rule:nonzero;"/><path d="M199.953,37.067c0,-4.696 1.185,-9.086 3.556,-13.171c2.371,-4.084 5.588,-7.336 9.649,-9.754c4.061,-2.418 8.463,-3.627 13.205,-3.627c4.742,0 9.144,1.209 13.206,3.627c4.061,2.418 7.301,5.67 9.719,9.754c2.418,4.085 3.627,8.475 3.627,13.171c0,4.789 -1.209,9.202 -3.627,13.24c-2.418,4.038 -5.658,7.242 -9.719,9.614c-4.062,2.371 -8.464,3.556 -13.206,3.556c-4.789,0 -9.202,-1.185 -13.24,-3.556c-4.038,-2.372 -7.243,-5.576 -9.614,-9.614c-2.371,-4.038 -3.556,-8.451 -3.556,-13.24Zm10.564,0c0,3.005 0.716,5.775 2.148,8.31c1.432,2.536 3.38,4.543 5.845,6.022c2.465,1.479 5.2,2.218 8.205,2.218c2.911,0 5.564,-0.739 7.959,-2.218c2.394,-1.479 4.272,-3.475 5.634,-5.987c1.362,-2.512 2.042,-5.294 2.042,-8.345c0,-3.099 -0.704,-5.916 -2.112,-8.452c-1.409,-2.535 -3.322,-4.542 -5.74,-6.021c-2.418,-1.479 -5.106,-2.219 -8.064,-2.219c-2.958,0 -5.646,0.74 -8.064,2.219c-2.418,1.479 -4.332,3.486 -5.74,6.021c-1.409,2.536 -2.113,5.353 -2.113,8.452Z" style="fill:#260c29;fill-rule:nonzero;"/><path d="M309.821,11.079l0,53.948l-0.282,0l-36.27,-32.75l0.211,30.637l-10.353,0l0,-53.878l0.422,0l36.201,33.242l-0.212,-31.199l10.283,0Z" style="fill:#260c29;fill-rule:nonzero;"/><path d="M350.881,23.615c-4.508,-2.489 -8.428,-3.733 -11.762,-3.733c-2.254,0 -4.003,0.446 -5.247,1.338c-1.244,0.892 -1.866,2.23 -1.866,4.015c0,1.643 0.904,3.087 2.711,4.331c1.808,1.244 4.214,2.43 7.219,3.557c2.442,0.892 4.531,1.913 6.268,3.063c1.738,1.151 3.181,2.735 4.332,4.754c1.15,2.019 1.725,4.578 1.725,7.677c0,2.676 -0.692,5.153 -2.077,7.43c-1.386,2.277 -3.416,4.085 -6.093,5.423c-2.676,1.338 -5.869,2.007 -9.578,2.007c-3.099,0 -6.174,-0.458 -9.226,-1.373c-3.052,-0.916 -5.892,-2.313 -8.522,-4.191l4.508,-7.958c1.784,1.315 3.826,2.395 6.127,3.24c2.301,0.845 4.367,1.267 6.198,1.267c2.159,0 4.038,-0.457 5.634,-1.373c1.596,-0.916 2.394,-2.406 2.394,-4.472c0,-2.676 -2.511,-5.001 -7.535,-6.973c-2.958,-1.173 -5.423,-2.3 -7.395,-3.38c-1.972,-1.08 -3.674,-2.629 -5.106,-4.648c-1.432,-2.019 -2.148,-4.555 -2.148,-7.607c0,-4.46 1.467,-8.052 4.401,-10.775c2.935,-2.723 6.844,-4.202 11.727,-4.437c3.85,0 7.066,0.434 9.648,1.303c2.583,0.868 5.095,2.101 7.536,3.697l-3.873,7.818Z" style="fill:#260c29;fill-rule:nonzero;"/><path d="M403.138,58.618c-1.314,1.08 -3.404,2.159 -6.268,3.239c-2.864,1.08 -5.986,1.62 -9.367,1.62c-5.399,0 -10.094,-1.174 -14.085,-3.521c-3.991,-2.348 -7.043,-5.505 -9.156,-9.473c-2.113,-3.967 -3.169,-8.322 -3.169,-13.064c0,-5.212 1.056,-9.86 3.169,-13.945c2.113,-4.085 5.071,-7.266 8.874,-9.543c3.803,-2.277 8.193,-3.416 13.17,-3.416c3.146,0 6.057,0.423 8.733,1.268c2.676,0.845 5.024,1.901 7.043,3.169l-4.014,9.649c-3.71,-2.817 -7.513,-4.226 -11.41,-4.226c-2.629,0 -5.094,0.728 -7.395,2.183c-2.3,1.456 -4.132,3.44 -5.493,5.952c-1.362,2.511 -2.043,5.293 -2.043,8.345c0,3.334 0.634,6.257 1.902,8.769c1.268,2.512 3.075,4.472 5.423,5.88c2.348,1.409 5.094,2.113 8.24,2.113c2.535,0 4.813,-0.411 6.832,-1.232c2.019,-0.822 3.615,-1.796 4.789,-2.923l4.225,9.156Z" style="fill:#260c29;fill-rule:nonzero;"/><rect x="413.351" y="11.079" width="10.212" height="51.835" style="fill:#260c29;fill-rule:nonzero;"/><path d="M433.775,37.067c0,-4.696 1.185,-9.086 3.556,-13.171c2.372,-4.084 5.588,-7.336 9.649,-9.754c4.061,-2.418 8.463,-3.627 13.205,-3.627c4.743,0 9.144,1.209 13.206,3.627c4.061,2.418 7.301,5.67 9.719,9.754c2.418,4.085 3.627,8.475 3.627,13.171c0,4.789 -1.209,9.202 -3.627,13.24c-2.418,4.038 -5.658,7.242 -9.719,9.614c-4.062,2.371 -8.463,3.556 -13.206,3.556c-4.789,0 -9.202,-1.185 -13.24,-3.556c-4.038,-2.372 -7.242,-5.576 -9.614,-9.614c-2.371,-4.038 -3.556,-8.451 -3.556,-13.24Zm10.564,0c0,3.005 0.716,5.775 2.148,8.31c1.432,2.536 3.381,4.543 5.846,6.022c2.465,1.479 5.2,2.218 8.205,2.218c2.911,0 5.563,-0.739 7.958,-2.218c2.395,-1.479 4.273,-3.475 5.634,-5.987c1.362,-2.512 2.043,-5.294 2.043,-8.345c0,-3.099 -0.705,-5.916 -2.113,-8.452c-1.409,-2.535 -3.322,-4.542 -5.74,-6.021c-2.418,-1.479 -5.106,-2.219 -8.064,-2.219c-2.958,0 -5.646,0.74 -8.064,2.219c-2.418,1.479 -4.332,3.486 -5.74,6.021c-1.409,2.536 -2.113,5.353 -2.113,8.452Z" style="fill:#260c29;fill-rule:nonzero;"/><path d="M506.105,43.757c0,1.644 0.493,3.217 1.479,4.719c0.986,1.502 2.3,2.723 3.944,3.662c1.643,0.939 3.404,1.409 5.282,1.409c2.019,0 3.873,-0.47 5.564,-1.409c1.69,-0.939 3.016,-2.16 3.979,-3.662c0.962,-1.502 1.444,-3.075 1.444,-4.719l0,-32.678l10.071,0l0,32.89c0,3.709 -0.939,7.054 -2.817,10.036c-1.878,2.981 -4.425,5.305 -7.642,6.972c-3.216,1.667 -6.749,2.5 -10.599,2.5c-3.85,0 -7.372,-0.833 -10.564,-2.5c-3.193,-1.667 -5.717,-3.991 -7.571,-6.972c-1.855,-2.982 -2.782,-6.327 -2.782,-10.036l0,-32.89l10.212,0l0,32.678Z" style="fill:#260c29;fill-rule:nonzero;"/><path d="M577.871,23.615c-4.507,-2.489 -8.428,-3.733 -11.761,-3.733c-2.254,0 -4.003,0.446 -5.247,1.338c-1.244,0.892 -1.867,2.23 -1.867,4.015c0,1.643 0.904,3.087 2.712,4.331c1.808,1.244 4.214,2.43 7.219,3.557c2.441,0.892 4.531,1.913 6.268,3.063c1.737,1.151 3.181,2.735 4.331,4.754c1.151,2.019 1.726,4.578 1.726,7.677c0,2.676 -0.693,5.153 -2.078,7.43c-1.385,2.277 -3.416,4.085 -6.092,5.423c-2.676,1.338 -5.869,2.007 -9.578,2.007c-3.099,0 -6.174,-0.458 -9.226,-1.373c-3.052,-0.916 -5.893,-2.313 -8.522,-4.191l4.507,-7.958c1.785,1.315 3.827,2.395 6.128,3.24c2.3,0.845 4.366,1.267 6.197,1.267c2.16,0 4.038,-0.457 5.635,-1.373c1.596,-0.916 2.394,-2.406 2.394,-4.472c0,-2.676 -2.512,-5.001 -7.536,-6.973c-2.958,-1.173 -5.423,-2.3 -7.395,-3.38c-1.972,-1.08 -3.674,-2.629 -5.106,-4.648c-1.432,-2.019 -2.148,-4.555 -2.148,-7.607c0,-4.46 1.467,-8.052 4.402,-10.775c2.934,-2.723 6.843,-4.202 11.726,-4.437c3.85,0 7.067,0.434 9.649,1.303c2.582,0.868 5.094,2.101 7.536,3.697l-3.874,7.818Z" style="fill:#260c29;fill-rule:nonzero;"/><path d="M171.918,116.335c-0.853,0.56 -1.931,1.078 -3.235,1.553c-1.303,0.476 -2.723,0.713 -4.258,0.713c-2.705,0 -5.087,-0.597 -7.146,-1.791c-2.059,-1.194 -3.643,-2.802 -4.752,-4.825c-1.109,-2.022 -1.663,-4.252 -1.663,-6.689c0,-2.607 0.56,-4.953 1.681,-7.036c1.121,-2.084 2.675,-3.716 4.661,-4.898c1.986,-1.182 4.234,-1.773 6.744,-1.773c1.486,0 2.875,0.195 4.167,0.585c1.291,0.39 2.449,0.901 3.472,1.535l-1.425,3.326c-2.023,-1.364 -4.058,-2.047 -6.105,-2.047c-1.705,0 -3.283,0.451 -4.733,1.353c-1.45,0.901 -2.607,2.126 -3.473,3.673c-0.865,1.548 -1.297,3.247 -1.297,5.099c0,1.901 0.396,3.619 1.188,5.154c0.792,1.535 1.925,2.736 3.399,3.601c1.474,0.865 3.174,1.297 5.099,1.297c2.364,0 4.423,-0.67 6.178,-2.01l1.498,3.18Z" style="fill:#260c29;fill-rule:nonzero;"/><path d="M195.385,111.364l-10.162,0l-2.814,6.945l-3.509,0l11.55,-27.524l0.22,0l11.55,27.524l-4.093,0l-2.742,-6.945Zm-1.206,-3.071l-3.765,-9.649l-3.911,9.649l7.676,0Z" style="fill:#260c29;fill-rule:nonzero;"/><path d="M217.901,91.881c2.876,0 5.124,0.719 6.744,2.157c1.621,1.438 2.431,3.448 2.431,6.031c0,1.487 -0.298,2.876 -0.895,4.167c-0.597,1.292 -1.56,2.339 -2.888,3.144c-1.328,0.804 -3.003,1.206 -5.026,1.206l-3.911,0l0,9.723l-3.546,0l0,-26.428l7.091,0Zm0.366,13.269c1.267,0 2.297,-0.268 3.089,-0.804c0.792,-0.536 1.358,-1.188 1.699,-1.956c0.342,-0.767 0.512,-1.517 0.512,-2.248c0,-1.267 -0.414,-2.394 -1.243,-3.381c-0.828,-0.987 -2.12,-1.48 -3.874,-1.48l-4.094,0l0,9.869l3.911,0Z" style="fill:#260c29;fill-rule:nonzero;"/><rect x="236.214" y="91.881" width="3.546" height="26.428" style="fill:#260c29;fill-rule:nonzero;"/><path d="M266.626,91.881l0,3.4l-7.091,0l0,23.028l-3.546,0l0,-23.028l-6.908,0l0,-3.4l17.545,0Z" style="fill:#260c29;fill-rule:nonzero;"/><path d="M287.717,111.364l-10.162,0l-2.814,6.945l-3.509,0l11.55,-27.524l0.22,0l11.55,27.524l-4.094,0l-2.741,-6.945Zm-1.206,-3.071l-3.765,-9.649l-3.911,9.649l7.676,0Z" style="fill:#260c29;fill-rule:nonzero;"/><path d="M306.688,91.881l0,22.992l13.451,0l0,3.436l-16.997,0l0,-26.428l3.546,0Z" style="fill:#260c29;fill-rule:nonzero;"/><path d="M360.42,91.881l0,3.4l-12.135,0l0,8.407l10.636,0l0,3.399l-10.636,0l0,11.222l-3.546,0l0,-26.428l15.681,0Z" style="fill:#260c29;fill-rule:nonzero;"/><path d="M373.14,108.951c0,1.17 0.281,2.224 0.841,3.162c0.56,0.938 1.322,1.682 2.285,2.23c0.962,0.548 2.028,0.822 3.198,0.822c1.218,0 2.321,-0.268 3.308,-0.804c0.987,-0.536 1.76,-1.279 2.321,-2.23c0.56,-0.95 0.841,-2.01 0.841,-3.18l0,-17.07l3.472,0l0,17.18c0,1.876 -0.438,3.54 -1.316,4.989c-0.877,1.45 -2.071,2.571 -3.582,3.363c-1.511,0.792 -3.192,1.188 -5.044,1.188c-1.828,0 -3.497,-0.396 -5.008,-1.188c-1.511,-0.792 -2.699,-1.913 -3.564,-3.363c-0.865,-1.449 -1.297,-3.113 -1.297,-4.989l0,-17.18l3.545,0l0,17.07Z" style="fill:#260c29;fill-rule:nonzero;"/><path d="M423.364,91.881l0,27.305l-0.11,0l-19.41,-19.702l0.074,18.825l-3.583,0l0,-27.232l0.183,0l19.373,19.921l-0.073,-19.117l3.546,0Z" style="fill:#260c29;fill-rule:nonzero;"/><path d="M434.622,91.881l7.237,0c3.29,0 6.013,0.652 8.17,1.956c2.156,1.304 3.728,2.985 4.715,5.044c0.987,2.059 1.48,4.234 1.48,6.525c0,2.558 -0.597,4.819 -1.791,6.78c-1.194,1.962 -2.79,3.473 -4.788,4.533c-1.998,1.06 -4.167,1.59 -6.507,1.59l-8.516,0l0,-26.428Zm7.822,22.992c1.949,0 3.692,-0.384 5.227,-1.151c1.535,-0.768 2.735,-1.883 3.6,-3.345c0.866,-1.462 1.298,-3.205 1.298,-5.227c0,-2.071 -0.451,-3.85 -1.352,-5.337c-0.902,-1.486 -2.102,-2.613 -3.601,-3.381c-1.498,-0.767 -3.113,-1.151 -4.843,-1.151l-4.606,0l0,19.592l4.277,0Z" style="fill:#260c29;fill-rule:nonzero;"/></g></g><defs><linearGradient id="_Linear1" x1="0" y1="0" x2="1" y2="0" gradientUnits="userSpaceOnUse" gradientTransform="matrix(0,-118.171,-118.171,-0,64.5386,124.636)"><stop offset="0" style="stop-color:#312480;stop-opacity:1"/><stop offset="1" style="stop-color:#ff328d;stop-opacity:1"/></linearGradient></defs></svg>