<?xml version="1.0" encoding="UTF-8" standalone="no"?><!DOCTYPE svg PUBLIC "-//W3C//DTD SVG 1.1//EN" "http://www.w3.org/Graphics/SVG/1.1/DTD/svg11.dtd"><svg width="100%" height="100%" viewBox="0 0 12 16" version="1.1" xmlns="http://www.w3.org/2000/svg" xmlns:xlink="http://www.w3.org/1999/xlink" xml:space="preserve" xmlns:serif="http://www.serif.com/" style="fill-rule:evenodd;clip-rule:evenodd;stroke-linejoin:round;stroke-miterlimit:1.41421;"><rect id="mouse" x="0" y="0" width="12" height="16" style="fill:none;"/><clipPath id="_clip1"><rect x="0" y="0" width="12" height="16"/></clipPath><g clip-path="url(#_clip1)"><path d="M12,5.999c0,-1.591 -0.632,-3.117 -1.757,-4.242c-1.125,-1.125 -2.651,-1.757 -4.242,-1.757c0,0 -0.001,0 -0.001,0c-3.314,0 -6,2.686 -6,6c0,1.308 0,2.692 0,4c0,3.314 2.686,6 6,6c0,0 0.001,0 0.001,0c1.591,0 3.117,-0.632 4.242,-1.757c1.125,-1.125 1.757,-2.651 1.757,-4.242c0,-1.309 0,-2.693 0,-4.002Z" style="fill:#fff;"/><path d="M6.076,0l0.074,0.002l0.074,0.002l0.074,0.003l0.075,0.005l0.073,0.005l0.074,0.006l0.074,0.006l0.073,0.008l0.074,0.009l0.073,0.009l0.073,0.011l0.073,0.011l0.072,0.012l0.073,0.013l0.072,0.014l0.072,0.015l0.072,0.016l0.071,0.016l0.071,0.018l0.071,0.018l0.071,0.019l0.071,0.02l0.07,0.021l0.07,0.022l0.069,0.023l0.07,0.023l0.069,0.024l0.068,0.025l0.069,0.026l0.068,0.027l0.068,0.028l0.067,0.028l0.067,0.029l0.067,0.03l0.066,0.031l0.066,0.032l0.066,0.032l0.065,0.034l0.065,0.034l0.064,0.035l0.064,0.035l0.064,0.037l0.063,0.037l0.063,0.038l0.062,0.039l0.062,0.04l0.061,0.04l0.061,0.041l0.061,0.042l0.06,0.043l0.059,0.043l0.059,0.044l0.059,0.045l0.057,0.046l0.058,0.047l0.057,0.047l0.056,0.048l0.056,0.048l0.055,0.05l0.055,0.05l0.054,0.051l0.054,0.052l0.053,0.052l0.052,0.053l0.052,0.054l0.051,0.054l0.05,0.055l0.05,0.055l0.048,0.056l0.048,0.056l0.047,0.057l0.047,0.058l0.046,0.058l0.045,0.058l0.044,0.059l0.043,0.059l0.043,0.06l0.042,0.061l0.041,0.061l0.04,0.061l0.04,0.062l0.039,0.062l0.038,0.063l0.037,0.063l0.037,0.064l0.035,0.064l0.035,0.064l0.034,0.065l0.034,0.065l0.032,0.066l0.032,0.066l0.031,0.066l0.03,0.067l0.029,0.067l0.028,0.067l0.028,0.068l0.027,0.068l0.026,0.069l0.025,0.068l0.024,0.069l0.023,0.07l0.023,0.069l0.022,0.07l0.021,0.071l0.02,0.07l0.019,0.071l0.018,0.071l0.018,0.071l0.016,0.072l0.016,0.071l0.015,0.072l0.014,0.072l0.013,0.073l0.012,0.072l0.011,0.073l0.011,0.073l0.009,0.073l0.009,0.074l0.008,0.073l0.006,0.074l0.006,0.074l0.005,0.073l0.005,0.075l0.003,0.074l0.002,0.074l0.002,0.074l0,0.075l0,4.002l0,0.075l-0.002,0.074l-0.002,0.074l-0.003,0.074l-0.005,0.075l-0.005,0.073l-0.006,0.074l-0.006,0.074l-0.008,0.073l-0.009,0.074l-0.009,0.073l-0.011,0.073l-0.011,0.073l-0.012,0.072l-0.013,0.073l-0.014,0.072l-0.015,0.072l-0.016,0.071l-0.016,0.072l-0.018,0.071l-0.018,0.071l-0.019,0.071l-0.02,0.07l-0.021,0.071l-0.022,0.07l-0.023,0.069l-0.023,0.07l-0.024,0.069l-0.025,0.068l-0.026,0.069l-0.027,0.068l-0.028,0.068l-0.028,0.067l-0.029,0.067l-0.03,0.067l-0.031,0.066l-0.032,0.066l-0.032,0.066l-0.034,0.065l-0.034,0.065l-0.035,0.064l-0.035,0.064l-0.037,0.064l-0.037,0.063l-0.038,0.063l-0.039,0.062l-0.04,0.062l-0.04,0.061l-0.041,0.061l-0.042,0.061l-0.043,0.06l-0.043,0.059l-0.044,0.059l-0.045,0.058l-0.046,0.058l-0.047,0.058l-0.047,0.057l-0.048,0.056l-0.048,0.056l-0.05,0.055l-0.05,0.055l-0.051,0.054l-0.052,0.054l-0.052,0.053l-0.053,0.052l-0.054,0.052l-0.054,0.051l-0.055,0.05l-0.055,0.05l-0.056,0.048l-0.056,0.048l-0.057,0.047l-0.058,0.047l-0.057,0.046l-0.059,0.045l-0.059,0.044l-0.059,0.043l-0.06,0.043l-0.061,0.042l-0.061,0.041l-0.061,0.04l-0.062,0.04l-0.062,0.039l-0.063,0.038l-0.063,0.037l-0.064,0.037l-0.064,0.035l-0.064,0.035l-0.065,0.034l-0.065,0.034l-0.066,0.032l-0.066,0.032l-0.066,0.031l-0.067,0.03l-0.067,0.029l-0.067,0.028l-0.068,0.028l-0.068,0.027l-0.069,0.026l-0.068,0.025l-0.069,0.024l-0.07,0.023l-0.069,0.023l-0.07,0.022l-0.07,0.021l-0.071,0.02l-0.071,0.019l-0.071,0.018l-0.071,0.018l-0.071,0.016l-0.072,0.016l-0.072,0.015l-0.072,0.014l-0.073,0.013l-0.072,0.012l-0.073,0.011l-0.073,0.011l-0.073,0.009l-0.074,0.009l-0.073,0.008l-0.074,0.006l-0.074,0.006l-0.073,0.005l-0.075,0.005l-0.074,0.003l-0.074,0.002l-0.074,0.002l-0.075,0l-0.001,0l-0.078,0l-0.077,-0.002l-0.077,-0.002l-0.077,-0.004l-0.076,-0.004l-0.077,-0.005l-0.076,-0.007l-0.075,-0.007l-0.076,-0.008l-0.075,-0.009l-0.075,-0.01l-0.075,-0.011l-0.074,-0.012l-0.074,-0.013l-0.074,-0.013l-0.073,-0.015l-0.073,-0.015l-0.073,-0.017l-0.072,-0.017l-0.072,-0.018l-0.072,-0.019l-0.072,-0.02l-0.071,-0.02l-0.07,-0.022l-0.07,-0.022l-0.07,-0.023l-0.07,-0.024l-0.069,-0.025l-0.069,-0.026l-0.068,-0.026l-0.068,-0.027l-0.067,-0.029l-0.068,-0.028l-0.066,-0.03l-0.066,-0.03l-0.066,-0.032l-0.066,-0.032l-0.065,-0.032l-0.064,-0.034l-0.064,-0.034l-0.063,-0.035l-0.064,-0.036l-0.062,-0.036l-0.062,-0.038l-0.062,-0.038l-0.061,-0.038l-0.061,-0.04l-0.06,-0.04l-0.059,-0.04l-0.059,-0.042l-0.059,-0.042l-0.058,-0.043l-0.057,-0.044l-0.057,-0.044l-0.057,-0.045l-0.056,-0.045l-0.055,-0.046l-0.055,-0.047l-0.054,-0.048l-0.053,-0.048l-0.053,-0.048l-0.053,-0.05l-0.051,-0.05l-0.052,-0.05l-0.05,-0.052l-0.05,-0.051l-0.05,-0.053l-0.048,-0.053l-0.048,-0.053l-0.048,-0.054l-0.047,-0.055l-0.046,-0.055l-0.045,-0.056l-0.045,-0.057l-0.044,-0.057l-0.044,-0.057l-0.043,-0.058l-0.042,-0.059l-0.042,-0.059l-0.04,-0.059l-0.04,-0.06l-0.04,-0.061l-0.038,-0.061l-0.038,-0.062l-0.038,-0.062l-0.036,-0.062l-0.036,-0.064l-0.035,-0.063l-0.034,-0.064l-0.034,-0.064l-0.032,-0.065l-0.032,-0.066l-0.032,-0.066l-0.03,-0.066l-0.03,-0.066l-0.028,-0.068l-0.029,-0.067l-0.027,-0.068l-0.026,-0.068l-0.026,-0.069l-0.025,-0.069l-0.024,-0.07l-0.023,-0.07l-0.022,-0.07l-0.022,-0.07l-0.02,-0.071l-0.02,-0.072l-0.019,-0.072l-0.018,-0.072l-0.017,-0.072l-0.017,-0.073l-0.015,-0.073l-0.015,-0.073l-0.013,-0.074l-0.013,-0.074l-0.012,-0.074l-0.011,-0.075l-0.01,-0.075l-0.009,-0.075l-0.008,-0.076l-0.007,-0.075l-0.007,-0.076l-0.005,-0.077l-0.004,-0.076l-0.004,-0.077l-0.002,-0.077l-0.002,-0.077l0,-0.078l0,-4l0,-0.078l0.002,-0.077l0.002,-0.077l0.004,-0.077l0.004,-0.076l0.005,-0.077l0.007,-0.076l0.007,-0.075l0.008,-0.076l0.009,-0.075l0.01,-0.075l0.011,-0.075l0.012,-0.074l0.013,-0.074l0.013,-0.074l0.015,-0.073l0.015,-0.073l0.017,-0.073l0.017,-0.072l0.018,-0.072l0.019,-0.072l0.02,-0.072l0.02,-0.071l0.022,-0.07l0.022,-0.07l0.023,-0.07l0.024,-0.07l0.025,-0.069l0.026,-0.069l0.026,-0.068l0.027,-0.068l0.029,-0.067l0.028,-0.068l0.03,-0.066l0.03,-0.066l0.032,-0.066l0.032,-0.066l0.032,-0.065l0.034,-0.064l0.034,-0.064l0.035,-0.063l0.036,-0.064l0.036,-0.062l0.038,-0.062l0.038,-0.062l0.038,-0.061l0.04,-0.061l0.04,-0.06l0.04,-0.059l0.042,-0.059l0.042,-0.059l0.043,-0.058l0.044,-0.057l0.044,-0.057l0.045,-0.057l0.045,-0.056l0.046,-0.055l0.047,-0.055l0.048,-0.054l0.048,-0.053l0.048,-0.053l0.05,-0.053l0.05,-0.051l0.05,-0.052l0.052,-0.05l0.051,-0.05l0.053,-0.05l0.053,-0.048l0.053,-0.048l0.054,-0.048l0.055,-0.047l0.055,-0.046l0.056,-0.045l0.057,-0.045l0.057,-0.044l0.057,-0.044l0.058,-0.043l0.059,-0.042l0.059,-0.042l0.059,-0.04l0.06,-0.04l0.061,-0.04l0.061,-0.038l0.062,-0.038l0.062,-0.038l0.062,-0.036l0.064,-0.036l0.063,-0.035l0.064,-0.034l0.064,-0.034l0.065,-0.032l0.066,-0.032l0.066,-0.032l0.066,-0.03l0.066,-0.03l0.068,-0.028l0.067,-0.029l0.068,-0.027l0.068,-0.026l0.069,-0.026l0.069,-0.025l0.07,-0.024l0.07,-0.023l0.07,-0.022l0.07,-0.022l0.071,-0.02l0.072,-0.02l0.072,-0.019l0.072,-0.018l0.072,-0.017l0.073,-0.017l0.073,-0.015l0.073,-0.015l0.074,-0.013l0.074,-0.013l0.074,-0.012l0.075,-0.011l0.075,-0.01l0.075,-0.009l0.076,-0.008l0.075,-0.007l0.076,-0.007l0.077,-0.005l0.076,-0.004l0.077,-0.004l0.077,-0.002l0.077,-0.002l0.078,0l0.076,0Zm-0.141,1l-0.065,0.002l-0.064,0.002l-0.064,0.003l-0.064,0.003l-0.064,0.005l-0.063,0.005l-0.063,0.006l-0.063,0.007l-0.063,0.007l-0.063,0.009l-0.061,0.009l-0.063,0.01l-0.062,0.01l-0.061,0.012l-0.061,0.012l-0.06,0.012l-0.061,0.014l-0.059,0.014l-0.061,0.015l-0.06,0.016l-0.059,0.017l-0.059,0.017l-0.059,0.018l-0.058,0.018l-0.058,0.019l-0.06,0.021l-0.058,0.021l-0.055,0.02l-0.057,0.022l-0.056,0.023l-0.056,0.023l-0.058,0.025l-0.054,0.024l-0.055,0.026l-0.056,0.026l-0.052,0.025l-0.056,0.029l-0.054,0.028l-0.052,0.027l-0.053,0.03l-0.053,0.03l-0.052,0.03l-0.053,0.032l-0.049,0.03l-0.051,0.033l-0.052,0.033l-0.051,0.034l-0.05,0.035l-0.048,0.033l-0.047,0.034l-0.049,0.036l-0.049,0.037l-0.048,0.038l-0.048,0.038l-0.046,0.037l-0.044,0.037l-0.046,0.04l-0.047,0.04l-0.043,0.039l-0.046,0.042l-0.042,0.04l-0.041,0.04l-0.047,0.047l-0.042,0.041l-0.04,0.042l-0.043,0.045l-0.039,0.043l-0.039,0.044l-0.041,0.047l-0.039,0.044l-0.037,0.045l-0.039,0.049l-0.04,0.049l-0.036,0.046l-0.035,0.047l-0.035,0.047l-0.034,0.048l-0.037,0.052l-0.033,0.049l-0.033,0.049l-0.035,0.054l-0.032,0.05l-0.031,0.05l-0.031,0.051l-0.029,0.052l-0.032,0.056l-0.029,0.052l-0.029,0.053l-0.025,0.049l-0.026,0.053l-0.029,0.059l-0.026,0.054l-0.027,0.06l-0.026,0.055l-0.021,0.051l-0.024,0.057l-0.022,0.056l-0.022,0.057l-0.022,0.057l-0.021,0.058l-0.02,0.058l-0.019,0.059l-0.019,0.059l-0.016,0.054l-0.017,0.06l-0.019,0.065l-0.014,0.055l-0.015,0.061l-0.015,0.062l-0.014,0.061l-0.013,0.062l-0.011,0.057l-0.012,0.063l-0.011,0.063l-0.009,0.058l-0.009,0.064l-0.009,0.064l-0.007,0.059l-0.007,0.065l-0.006,0.065l-0.005,0.065l-0.005,0.06l-0.003,0.061l-0.003,0.072l-0.003,0.061l0,0.062l-0.001,0.072l0,3.99l0.001,0.134l0.006,0.133l0.003,0.061l0.005,0.06l0.005,0.065l0.006,0.065l0.007,0.065l0.007,0.059l0.009,0.064l0.009,0.064l0.009,0.058l0.011,0.063l0.012,0.063l0.011,0.057l0.013,0.062l0.014,0.061l0.015,0.062l0.015,0.061l0.014,0.055l0.019,0.065l0.017,0.06l0.016,0.054l0.019,0.059l0.019,0.059l0.02,0.058l0.021,0.058l0.022,0.057l0.022,0.057l0.022,0.056l0.024,0.057l0.021,0.051l0.026,0.055l0.027,0.06l0.026,0.054l0.029,0.059l0.026,0.053l0.025,0.049l0.029,0.053l0.029,0.052l0.032,0.056l0.029,0.052l0.031,0.051l0.031,0.05l0.032,0.05l0.035,0.054l0.033,0.049l0.033,0.049l0.037,0.052l0.034,0.048l0.035,0.047l0.035,0.047l0.036,0.046l0.04,0.049l0.039,0.049l0.037,0.045l0.039,0.044l0.041,0.047l0.039,0.044l0.039,0.043l0.043,0.045l0.04,0.042l0.042,0.041l0.047,0.047l0.041,0.04l0.042,0.04l0.046,0.042l0.043,0.039l0.047,0.04l0.046,0.04l0.044,0.037l0.046,0.037l0.048,0.038l0.048,0.038l0.049,0.037l0.049,0.036l0.047,0.034l0.048,0.033l0.05,0.035l0.051,0.034l0.052,0.033l0.051,0.033l0.049,0.03l0.053,0.032l0.052,0.03l0.053,0.03l0.053,0.03l0.052,0.027l0.054,0.028l0.056,0.029l0.052,0.025l0.056,0.026l0.055,0.026l0.054,0.024l0.058,0.025l0.056,0.023l0.056,0.023l0.057,0.022l0.055,0.02l0.058,0.021l0.06,0.021l0.058,0.019l0.058,0.018l0.059,0.018l0.059,0.017l0.059,0.017l0.06,0.016l0.061,0.015l0.059,0.014l0.061,0.014l0.06,0.012l0.061,0.012l0.061,0.012l0.062,0.01l0.063,0.01l0.061,0.009l0.063,0.009l0.063,0.007l0.063,0.007l0.063,0.006l0.063,0.005l0.064,0.005l0.064,0.003l0.064,0.003l0.064,0.002l0.065,0.002l0.065,0l0.063,0l0.062,-0.002l0.062,-0.001l0.062,-0.003l0.062,-0.004l0.061,-0.004l0.061,-0.005l0.062,-0.005l0.061,-0.007l0.061,-0.007l0.061,-0.008l0.062,-0.009l0.06,-0.009l0.06,-0.01l0.061,-0.011l0.06,-0.012l0.06,-0.012l0.06,-0.013l0.059,-0.014l0.06,-0.015l0.058,-0.015l0.059,-0.016l0.059,-0.017l0.06,-0.017l0.058,-0.018l0.056,-0.019l0.059,-0.02l0.059,-0.02l0.055,-0.02l0.057,-0.022l0.058,-0.023l0.056,-0.023l0.056,-0.023l0.056,-0.024l0.055,-0.025l0.057,-0.027l0.055,-0.026l0.053,-0.026l0.054,-0.028l0.056,-0.03l0.054,-0.029l0.051,-0.028l0.053,-0.031l0.055,-0.032l0.053,-0.032l0.05,-0.031l0.051,-0.033l0.052,-0.034l0.049,-0.033l0.05,-0.035l0.053,-0.038l0.048,-0.035l0.047,-0.035l0.052,-0.04l0.049,-0.039l0.046,-0.037l0.046,-0.038l0.048,-0.041l0.047,-0.041l0.047,-0.042l0.045,-0.041l0.043,-0.041l0.048,-0.046l0.044,-0.043l0.042,-0.043l0.043,-0.044l0.042,-0.045l0.044,-0.048l0.041,-0.046l0.04,-0.046l0.04,-0.046l0.039,-0.047l0.038,-0.048l0.038,-0.048l0.039,-0.052l0.037,-0.048l0.034,-0.046l0.037,-0.053l0.035,-0.05l0.034,-0.051l0.034,-0.051l0.033,-0.051l0.032,-0.052l0.031,-0.052l0.032,-0.052l0.03,-0.053l0.032,-0.058l0.027,-0.049l0.028,-0.054l0.028,-0.054l0.027,-0.055l0.028,-0.06l0.024,-0.051l0.025,-0.055l0.025,-0.057l0.023,-0.056l0.024,-0.057l0.022,-0.057l0.022,-0.057l0.019,-0.053l0.02,-0.058l0.021,-0.063l0.02,-0.059l0.017,-0.054l0.017,-0.059l0.017,-0.059l0.016,-0.06l0.016,-0.06l0.013,-0.055l0.014,-0.061l0.015,-0.065l0.011,-0.056l0.011,-0.056l0.012,-0.067l0.01,-0.061l0.009,-0.057l0.009,-0.062l0.008,-0.062l0.007,-0.057l0.006,-0.062l0.006,-0.063l0.005,-0.063l0.005,-0.063l0.003,-0.058l0.003,-0.063l0.002,-0.059l0,-0.063l0.001,-0.069l0,-3.992l-0.001,-0.069l0,-0.063l-0.002,-0.059l-0.003,-0.063l-0.003,-0.058l-0.005,-0.063l-0.005,-0.063l-0.006,-0.063l-0.006,-0.062l-0.007,-0.057l-0.008,-0.062l-0.009,-0.062l-0.009,-0.057l-0.01,-0.061l-0.012,-0.067l-0.011,-0.056l-0.011,-0.056l-0.015,-0.065l-0.014,-0.061l-0.013,-0.055l-0.016,-0.06l-0.016,-0.06l-0.017,-0.059l-0.017,-0.059l-0.017,-0.054l-0.02,-0.059l-0.021,-0.063l-0.02,-0.058l-0.019,-0.053l-0.022,-0.057l-0.022,-0.057l-0.024,-0.057l-0.023,-0.056l-0.025,-0.057l-0.025,-0.055l-0.024,-0.051l-0.028,-0.06l-0.027,-0.055l-0.028,-0.054l-0.028,-0.054l-0.027,-0.049l-0.032,-0.058l-0.03,-0.053l-0.032,-0.052l-0.031,-0.052l-0.032,-0.052l-0.033,-0.051l-0.034,-0.051l-0.034,-0.051l-0.035,-0.05l-0.037,-0.053l-0.034,-0.046l-0.037,-0.049l-0.039,-0.051l-0.038,-0.048l-0.038,-0.048l-0.039,-0.047l-0.04,-0.046l-0.04,-0.046l-0.041,-0.046l-0.044,-0.048l-0.042,-0.045l-0.043,-0.044l-0.042,-0.043l-0.044,-0.043l-0.048,-0.046l-0.043,-0.041l-0.045,-0.041l-0.047,-0.042l-0.047,-0.041l-0.048,-0.041l-0.046,-0.038l-0.046,-0.037l-0.049,-0.039l-0.052,-0.04l-0.047,-0.035l-0.048,-0.035l-0.053,-0.038l-0.05,-0.035l-0.049,-0.033l-0.052,-0.034l-0.051,-0.033l-0.05,-0.031l-0.053,-0.032l-0.055,-0.032l-0.053,-0.031l-0.051,-0.028l-0.054,-0.029l-0.056,-0.03l-0.054,-0.028l-0.053,-0.026l-0.055,-0.026l-0.057,-0.027l-0.055,-0.025l-0.056,-0.024l-0.056,-0.023l-0.056,-0.023l-0.058,-0.023l-0.057,-0.022l-0.055,-0.02l-0.059,-0.02l-0.059,-0.02l-0.056,-0.019l-0.058,-0.018l-0.06,-0.017l-0.059,-0.017l-0.059,-0.016l-0.058,-0.015l-0.06,-0.015l-0.059,-0.014l-0.06,-0.013l-0.06,-0.012l-0.06,-0.012l-0.061,-0.011l-0.06,-0.01l-0.06,-0.009l-0.062,-0.009l-0.061,-0.008l-0.061,-0.007l-0.061,-0.007l-0.062,-0.005l-0.061,-0.005l-0.061,-0.004l-0.062,-0.004l-0.062,-0.003l-0.062,-0.001l-0.062,-0.002l-0.063,0l-0.065,0Z" style="fill:#180035;"/></g></svg>