<svg width="924" height="688" viewBox="0 0 924 688" fill="none" xmlns="http://www.w3.org/2000/svg">
<rect width="655" height="516" fill="url(#paint0_linear)"/>
<rect width="108" height="516" fill="url(#paint1_linear)"/>
<rect x="184" y="153" width="471" height="47" fill="url(#paint2_linear)"/>
<rect x="108" width="76" height="269" fill="url(#paint3_linear)"/>
<mask id="path-5-inside-1" fill="white">
<path d="M924 269.5C924 198.024 895.606 129.476 845.065 78.9347C794.524 28.3937 725.976 5.39628e-06 654.5 0C583.024 -5.39628e-06 514.476 28.3937 463.935 78.9347C413.394 129.476 385 198.024 385 269.5L654.5 269.5H924Z"/>
</mask>
<path d="M924 269.5C924 198.024 895.606 129.476 845.065 78.9347C794.524 28.3937 725.976 5.39628e-06 654.5 0C583.024 -5.39628e-06 514.476 28.3937 463.935 78.9347C413.394 129.476 385 198.024 385 269.5L654.5 269.5H924Z" stroke="url(#paint4_linear)" stroke-width="140" mask="url(#path-5-inside-1)"/>
<rect x="103" y="269" width="552" height="90" fill="url(#paint5_linear)"/>
<path fill-rule="evenodd" clip-rule="evenodd" d="M38 269V479.5C38 594.651 131.349 688 246.5 688C361.651 688 455 594.651 455 479.5V269H385V479.5C385 555.991 322.991 618 246.5 618C170.009 618 108 555.991 108 479.5V269H38Z" fill="url(#paint6_linear)"/>
<defs>
<linearGradient id="paint0_linear" x1="327.5" y1="0" x2="327.5" y2="516" gradientUnits="userSpaceOnUse">
<stop stop-color="#FE2896"/>
<stop offset="1" stop-color="#FDE773"/>
</linearGradient>
<linearGradient id="paint1_linear" x1="54" y1="0" x2="54" y2="516" gradientUnits="userSpaceOnUse">
<stop stop-color="#312480"/>
<stop offset="1" stop-color="#FF328D"/>
</linearGradient>
<linearGradient id="paint2_linear" x1="655" y1="177" x2="184" y2="177" gradientUnits="userSpaceOnUse">
<stop stop-color="#4737FF"/>
<stop offset="1" stop-color="#C4C4C4" stop-opacity="0"/>
</linearGradient>
<linearGradient id="paint3_linear" x1="146" y1="0" x2="146" y2="269" gradientUnits="userSpaceOnUse">
<stop stop-color="#332480"/>
<stop offset="1" stop-color="#FE8984"/>
</linearGradient>
<linearGradient id="paint4_linear" x1="654.5" y1="0" x2="654.5" y2="539" gradientUnits="userSpaceOnUse">
<stop stop-color="#8B33ED"/>
<stop offset="1" stop-color="#150D59"/>
</linearGradient>
<linearGradient id="paint5_linear" x1="655" y1="307" x2="103" y2="314" gradientUnits="userSpaceOnUse">
<stop stop-color="#FF973D"/>
<stop offset="1" stop-color="#73ECFD"/>
</linearGradient>
<linearGradient id="paint6_linear" x1="38" y1="478.859" x2="455" y2="478.859" gradientUnits="userSpaceOnUse">
<stop stop-color="#1C1461"/>
<stop offset="1" stop-color="#8B33ED"/>
</linearGradient>
</defs>
</svg>
